<?xml version="1.0" standalone="no"?><!DOCTYPE svg PUBLIC "-//W3C//DTD SVG 1.1//EN" "http://www.w3.org/Graphics/SVG/1.1/DTD/svg11.dtd"><svg t="1672051955169" class="icon" viewBox="0 0 1024 1024" version="1.1" xmlns="http://www.w3.org/2000/svg" p-id="3623" xmlns:xlink="http://www.w3.org/1999/xlink" width="120" height="120"><path d="M1010.005333 438.328889l-264.391111-96.341333L638.236444 41.813333c-3.072-8.590222-10.154667-13.653333-20.536888-14.08a21.219556 21.219556 0 0 0-19.854223 15.075556l-93.667555 304.64-259.754667 108.231111a21.248 21.248 0 0 0 0.910222 39.651556L509.724444 591.644444l107.377778 300.145778a21.333333 21.333333 0 0 0 20.024889 14.108445h0.455111a21.219556 21.219556 0 0 0 19.854222-15.075556l93.667556-304.696889 259.754667-108.174222a21.333333 21.333333 0 0 0-0.910223-39.651556z" fill="#61BCF6" p-id="3624"></path><path d="M272.213333 134.115556l-82.659555 1.848888-1.706667-77.226666a37.489778 37.489778 0 0 0-74.922667 1.706666l1.792 77.226667-78.136888 1.763556a37.461333 37.461333 0 0 0 1.706666 74.837333l78.136889-1.763556 1.763556 77.255112c0.483556 20.650667 17.635556 37.034667 38.257777 36.579555a37.461333 37.461333 0 0 0 36.579556-38.257778l-1.763556-77.226666 82.631112-1.877334a37.461333 37.461333 0 0 0-1.735112-74.837333z" fill="#F16888" p-id="3625"></path><path d="M404.053333 844.515556l-46.933333 1.024-0.967111-43.178667a37.432889 37.432889 0 1 0-74.808889 1.678222l0.967111 43.178667-43.804444 0.995555a37.461333 37.461333 0 0 0-36.579556 38.257778c0.483556 20.650667 17.635556 37.034667 38.257778 36.579556l43.804444-0.967111 0.967111 43.178666c0.483556 20.650667 17.635556 37.034667 38.257778 36.579556a37.461333 37.461333 0 0 0 36.579556-38.257778l-0.967111-43.178667 46.933333-1.052444a37.432889 37.432889 0 0 0-1.678222-74.837333z" fill="#FD9E1A" p-id="3626"></path></svg>